<svg width="29" height="26" viewBox="0 0 29 26" fill="none" xmlns="http://www.w3.org/2000/svg">
<path d="M24.4768 3.90754C23.649 3.8514 22.7191 3.85148 21.7682 3.85157L7.02806 3.85157C6.0771 3.85148 5.14717 3.85139 4.3194 3.90754L4.3194 3.85156C4.3194 1.7244 6.25328 6.68963e-07 8.63883 7.45315e-07L20.1573 -1.10404e-07C22.5429 -3.40522e-08 24.4768 1.7244 24.4768 3.85156L24.4768 3.90754Z" fill="#FF6B6B"/>
<path fill-rule="evenodd" clip-rule="evenodd" d="M12.8636 12.8386C12.8951 12.8386 12.9267 12.8386 12.9584 12.8386L15.838 12.8386C15.8697 12.8386 15.9013 12.8386 15.9328 12.8386C17.2092 12.8386 18.3089 12.8385 19.1896 12.9441C20.1334 13.0572 21.0381 13.3124 21.772 13.9667C22.5058 14.6211 22.7919 15.4278 22.9188 16.2694C23.0372 17.0546 23.0372 18.0353 23.0371 19.1734L23.0371 19.3424C23.0372 20.4805 23.0372 21.4612 22.9188 22.2464C22.7919 23.088 22.5058 23.8947 21.772 24.5491C21.0381 25.2034 20.1334 25.4586 19.1896 25.5717C18.3089 25.6773 17.2092 25.6772 15.9328 25.6772L12.8636 25.6772C11.5872 25.6772 10.4875 25.6773 9.60682 25.5717C8.663 25.4586 7.7583 25.2034 7.02448 24.5491C6.29066 23.8947 6.00451 23.088 5.87761 22.2464C5.75921 21.4612 5.75927 20.4805 5.75934 19.3424C5.75934 19.3143 5.75935 19.2862 5.75935 19.2579C5.75935 19.2296 5.75934 19.2015 5.75934 19.1734C5.75927 18.0353 5.75921 17.0546 5.87761 16.2694C6.00451 15.4278 6.29066 14.6211 7.02448 13.9667C7.7583 13.3124 8.663 13.0572 9.60682 12.9441C10.4875 12.8385 11.5872 12.8386 12.8636 12.8386Z" fill="#FF6B6B"/>
<path d="M7.10429 5.13575C5.82791 5.13568 4.72816 5.13563 3.84749 5.2412C2.90367 5.35435 1.99896 5.60951 1.26514 6.26384C0.531324 6.91818 0.245167 7.72488 0.118275 8.56647C-0.000128141 9.35175 -6.7777e-05 10.3324 3.55688e-06 11.4705L3.39351e-06 14.2072C-6.80763e-05 15.3454 -0.000128548 16.326 0.118275 17.1113C0.24517 17.9528 0.531323 18.7596 1.26514 19.4139C2.08266 20.1428 3.20647 20.3979 4.32425 20.4824C4.31936 20.1323 4.3194 19.7732 4.31945 19.4106C4.31945 18.308 4.28543 17.1938 4.45056 16.0985C4.59879 15.1154 4.95993 13.9922 6.0063 13.0591C7.05267 12.1261 8.31236 11.8041 9.4149 11.6719C10.392 11.5548 11.5725 11.5549 12.7874 11.555L16.0089 11.555C17.2238 11.5549 18.4043 11.5548 19.3814 11.6719C20.4839 11.8041 21.7436 12.1261 22.79 13.0591C23.8364 13.9922 24.1975 15.1154 24.3457 16.0985C24.5109 17.1937 24.4768 18.308 24.4768 19.4106C24.4769 19.7732 24.4769 20.1323 24.472 20.4824C25.5898 20.3979 26.7136 20.1428 27.5311 19.4139C28.2649 18.7596 28.5511 17.9528 28.678 17.1113C28.7964 16.326 28.7963 15.3454 28.7963 14.2072L28.7963 11.4705C28.7963 10.3324 28.7964 9.35175 28.678 8.56647C28.5511 7.72488 28.2649 6.91818 27.5311 6.26384C26.7973 5.60951 25.8926 5.35435 24.9488 5.24121C24.0681 5.13563 22.9684 5.13568 21.692 5.13575L7.10429 5.13575Z" fill="#FF6B6B"/>
</svg>
