<svg width="28" height="28" viewBox="0 0 28 28" fill="none" xmlns="http://www.w3.org/2000/svg">
<path d="M1 10.6704C1 8.78479 1 7.84198 1.58579 7.2562C2.17157 6.67041 3.11438 6.67041 5 6.67041H5.31551H22.5776H22.8931C24.7787 6.67041 25.7215 6.67041 26.3073 7.2562C26.8931 7.84198 26.8931 8.78479 26.8931 10.6704V22.517C26.8931 24.4026 26.8931 25.3455 26.3073 25.9312C25.7215 26.517 24.7787 26.517 22.8931 26.517H19.7005H8.19252H5C3.11438 26.517 2.17157 26.517 1.58579 25.9312C1 25.3455 1 24.4026 1 22.517V10.6704Z" stroke="#FF9F43" stroke-width="2" stroke-linejoin="round"/>
<path d="M8.19252 6.67046V3C8.19252 1.89543 9.08795 1 10.1925 1H17.7005C18.8051 1 19.7005 1.89543 19.7005 3V6.67046" stroke="#FF9F43" stroke-width="2" stroke-linejoin="round"/>
<path d="M1 10.9236C1.26776 12.79 2.05729 14.5155 3.2377 15.9865C5.59547 18.9246 9.51273 20.8469 13.9465 20.8469C18.3803 20.8469 22.2976 18.9246 24.6554 15.9865C25.8358 14.5155 26.6253 12.79 26.8931 10.9236" stroke="#FF9F43" stroke-width="2" stroke-linecap="round"/>
<path d="M13.2273 15.1765H14.6658" stroke="#FF9F43" stroke-width="2" stroke-linecap="round" stroke-linejoin="round"/>
</svg>
