<svg width="26" height="26" viewBox="0 0 26 26" fill="none" xmlns="http://www.w3.org/2000/svg">
<path d="M24.5463 18.2944H7.07318C6.74217 18.2944 6.42471 18.1628 6.19065 17.9287C5.95659 17.6945 5.8251 17.377 5.8251 17.0459C5.8251 16.7147 5.95659 16.3972 6.19065 16.163C6.42471 15.9289 6.74217 15.7973 7.07318 15.7973H20.1032C20.9377 15.7974 21.7483 15.5185 22.4063 15.005C23.0643 14.4916 23.532 13.7729 23.7351 12.9632L25.7944 4.86018C25.8412 4.67591 25.8452 4.48339 25.8063 4.29731C25.7674 4.11123 25.6865 3.9365 25.5698 3.78645C25.4484 3.63254 25.2925 3.50939 25.1147 3.42697C24.9369 3.34454 24.7422 3.30516 24.5463 3.312H6.77364C6.51614 2.58342 6.03968 1.95235 5.40956 1.5053C4.77945 1.05825 4.02654 0.817113 3.25404 0.814941H2.08085C1.74983 0.814941 1.43238 0.946483 1.19832 1.18063C0.964258 1.41477 0.832764 1.73234 0.832764 2.06347C0.832764 2.3946 0.964258 2.71217 1.19832 2.94632C1.43238 3.18046 1.74983 3.312 2.08085 3.312H3.25404C3.53915 3.30369 3.8185 3.39332 4.04559 3.56597C4.27267 3.73862 4.43379 3.98387 4.50213 4.26089L4.57701 4.86018L6.7362 13.3003C5.74316 13.345 4.80855 13.7825 4.13796 14.5165C3.46738 15.2505 3.11575 16.221 3.16044 17.2144C3.20512 18.2078 3.64246 19.1427 4.37624 19.8136C5.11003 20.4844 6.08014 20.8361 7.07318 20.7914H7.29783C7.09257 21.3572 7.02661 21.9641 7.10554 22.5607C7.18447 23.1574 7.40597 23.7263 7.75128 24.2191C8.09659 24.712 8.55554 25.1143 9.08927 25.3921C9.623 25.6699 10.2158 25.8149 10.8174 25.8149C11.4191 25.8149 12.0119 25.6699 12.5456 25.3921C13.0793 25.1143 13.5383 24.712 13.8836 24.2191C14.2289 23.7263 14.4504 23.1574 14.5293 22.5607C14.6082 21.9641 14.5423 21.3572 14.337 20.7914H17.2825C17.0772 21.3572 17.0113 21.9641 17.0902 22.5607C17.1691 23.1574 17.3906 23.7263 17.7359 24.2191C18.0813 24.712 18.5402 25.1143 19.0739 25.3921C19.6077 25.6699 20.2004 25.8149 20.8021 25.8149C21.4037 25.8149 21.9965 25.6699 22.5302 25.3921C23.064 25.1143 23.5229 24.712 23.8682 24.2191C24.2135 23.7263 24.435 23.1574 24.514 22.5607C24.5929 21.9641 24.5269 21.3572 24.3217 20.7914H24.5463C24.8773 20.7914 25.1948 20.6599 25.4289 20.4258C25.6629 20.1916 25.7944 19.874 25.7944 19.5429C25.7944 19.2118 25.6629 18.8942 25.4289 18.6601C25.1948 18.4259 24.8773 18.2944 24.5463 18.2944ZM22.9488 5.80907L21.3138 12.3514C21.2455 12.6284 21.0843 12.8736 20.8573 13.0463C20.6302 13.2189 20.3508 13.3086 20.0657 13.3003H9.29476L7.42264 5.80907H22.9488ZM10.8174 23.2885C10.5706 23.2885 10.3293 23.2153 10.124 23.0781C9.91878 22.9409 9.75881 22.7459 9.66435 22.5178C9.56988 22.2896 9.54517 22.0386 9.59332 21.7964C9.64148 21.5542 9.76035 21.3317 9.9349 21.1571C10.1094 20.9825 10.3318 20.8636 10.5739 20.8154C10.816 20.7673 11.067 20.792 11.295 20.8865C11.5231 20.981 11.718 21.141 11.8552 21.3463C11.9923 21.5516 12.0655 21.793 12.0655 22.04C12.0655 22.3711 11.934 22.6887 11.7 22.9228C11.4659 23.157 11.1484 23.2885 10.8174 23.2885ZM20.8021 23.2885C20.5552 23.2885 20.3139 23.2153 20.1087 23.0781C19.9034 22.9409 19.7435 22.7459 19.649 22.5178C19.5545 22.2896 19.5298 22.0386 19.578 21.7964C19.6261 21.5542 19.745 21.3317 19.9196 21.1571C20.0941 20.9825 20.3165 20.8636 20.5586 20.8154C20.8007 20.7673 21.0517 20.792 21.2797 20.8865C21.5078 20.981 21.7027 21.141 21.8398 21.3463C21.977 21.5516 22.0502 21.793 22.0502 22.04C22.0502 22.3711 21.9187 22.6887 21.6846 22.9228C21.4506 23.157 21.1331 23.2885 20.8021 23.2885Z" fill="#5F27CD"/>
</svg>
